<svg width="210" height="22" viewBox="0 0 210 22" fill="none" xmlns="http://www.w3.org/2000/svg">
<path fill-rule="evenodd" clip-rule="evenodd" d="M203.045 0L209.683 6.63804L203.045 13.2761L202.098 12.3285L207.788 6.63804L202.098 0.947567L203.045 0Z" fill="white"/>
<path fill-rule="evenodd" clip-rule="evenodd" d="M208.736 7.30784L168.228 7.30784L168.228 5.96777L208.736 5.96778L208.736 7.30784Z" fill="white"/>
<g filter="url(#filter0_dd_1_11565)">
<path fill-rule="evenodd" clip-rule="evenodd" d="M10.6381 13.2761L4.00002 6.63808L10.6381 3.84663e-05L11.5856 0.947606L5.89516 6.63808L11.5856 12.3286L10.6381 13.2761Z" fill="white"/>
<path fill-rule="evenodd" clip-rule="evenodd" d="M4.94758 5.96828L45.4556 5.96829L45.4556 7.30835L4.94758 7.30834L4.94758 5.96828Z" fill="white"/>
</g>
<rect x="129.164" y="1.45654" width="9.56667" height="9.56667" rx="4.78333" fill="white" fill-opacity="0.3"/>
<rect x="102.058" y="1.45654" width="9.56667" height="9.56667" rx="4.78333" fill="white" fill-opacity="0.3"/>
<rect x="74.9528" y="1.4563" width="9.56667" height="9.56667" rx="4.78333" fill="white"/>
<defs>
<filter id="filter0_dd_1_11565" x="0" y="0" width="49.4556" height="21.2761" filterUnits="userSpaceOnUse" color-interpolation-filters="sRGB">
<feFlood flood-opacity="0" result="BackgroundImageFix"/>
<feColorMatrix in="SourceAlpha" type="matrix" values="0 0 0 0 0 0 0 0 0 0 0 0 0 0 0 0 0 0 127 0" result="hardAlpha"/>
<feOffset dy="4"/>
<feGaussianBlur stdDeviation="2"/>
<feComposite in2="hardAlpha" operator="out"/>
<feColorMatrix type="matrix" values="0 0 0 0 0 0 0 0 0 0 0 0 0 0 0 0 0 0 0.25 0"/>
<feBlend mode="normal" in2="BackgroundImageFix" result="effect1_dropShadow_1_11565"/>
<feColorMatrix in="SourceAlpha" type="matrix" values="0 0 0 0 0 0 0 0 0 0 0 0 0 0 0 0 0 0 127 0" result="hardAlpha"/>
<feOffset dy="4"/>
<feGaussianBlur stdDeviation="2"/>
<feComposite in2="hardAlpha" operator="out"/>
<feColorMatrix type="matrix" values="0 0 0 0 0 0 0 0 0 0 0 0 0 0 0 0 0 0 0.25 0"/>
<feBlend mode="normal" in2="effect1_dropShadow_1_11565" result="effect2_dropShadow_1_11565"/>
<feBlend mode="normal" in="SourceGraphic" in2="effect2_dropShadow_1_11565" result="shape"/>
</filter>
</defs>
</svg>
